<svg id="Layer_1" data-name="Layer 1" xmlns="http://www.w3.org/2000/svg" viewBox="0 0 1000 1000"><defs><style>.cls-1{fill:#fff;}</style></defs><title>stock</title><path class="cls-1" d="M265.23,13.55a101,101,0,0,0-19.6,8c-12.25,7.15-26.54,23.89-31.23,37-4.29,11.23-4.29,12.45-4.29,441.77V930.77l4.49,11.84c5.92,16.13,24.5,34.91,41.44,41.64l12.25,4.9,227.42.61c250.89.61,241.5,1,261.92-12,12.25-8,21.23-19.19,27.35-34.09l4.9-11.64V68.46L785,56.82c-9.39-22.66-25.92-37.36-49.2-43.48C718,8.85,282.59,8.85,265.23,13.55Zm308.26,39.6c6.13,6.12,5.51,16.94-1.22,22.25-5.31,4.08-7.76,4.29-71.66,4.29H434.47l-4.9-5.1C423.24,68.47,423,60.1,429,53.77l4.29-4.69h68.19C566.76,49.07,569.61,49.27,573.49,53.15ZM762.33,477.77V838.08H239.72l-.62-358.27c-.2-197,0-359.5.61-360.93.61-2,54.1-2.45,261.71-2l260.9.61V477.77ZM514.9,869.93c10,2.66,23.48,14.9,28.17,25.31,8.78,19,1.43,44.71-16.13,57.16-7.14,4.9-11.23,6.12-22.46,6.74C483,960.37,467.73,952,459.36,934,442.43,897.7,475.91,859.11,514.9,869.93Z"/><path class="cls-1" d="M596,178.9c-7.76,2.65-19.8,13.88-79,73.9-38.58,39-69.82,71.65-69.82,72.88C447.33,328.33,560.84,438,563.29,438c1.22,0,31.85-30.83,68.39-68.39,43.48-44.91,68-71.45,70.84-77.58,3.26-6.53,4.9-13.88,5.31-25.11,1.23-23.68-5.31-35.72-32.87-61.65-11.43-10.82-24.91-21.64-30-24.09C633.1,175.43,609.22,174.41,596,178.9Z"/><path class="cls-1" d="M370,403.26c-74.1,75.74-78.19,81.25-78.19,104.93,0,23.27,3.88,30.83,29.19,57,24.29,24.7,35.32,31.64,53.9,34.3,12,1.43,30.21-3.06,40.83-10.41,6.53-4.29,137.19-137.59,137.39-139.84,0-1.84-114.12-112.28-116.16-112.28C435.9,336.91,405.89,366.72,370,403.26Z"/><path class="cls-1" d="M287.49,683.75c-3.47,2.65-4.69,5.92-4.69,11.43s1.22,8.78,4.69,11.43c4.49,3.67,12.45,3.88,211.9,3.88,128.61,0,208.43-.81,210.68-2,2-1,4.9-4.49,6.13-8,2.86-6.53.61-13.07-5.72-18-2.45-2-50.83-2.45-210.68-2.65C299.94,679.87,292,680.08,287.49,683.75Z"/><path class="cls-1" d="M288.1,756.63c-3.27,2.24-4.49,5.1-4.49,10.82,0,15.72-17.35,14.49,215.58,14.49,231.5,0,217.21.82,217.21-13.47,0-4.29-1.63-8.57-4.08-11-4.08-4.08-6.74-4.08-211.9-4.08C315.66,753.37,292.18,753.77,288.1,756.63Z"/></svg>