<?xml version="1.0" encoding="utf-8"?>
<!-- Generator: Adobe Illustrator 22.0.1, SVG Export Plug-In . SVG Version: 6.00 Build 0)  -->
<svg version="1.1" id="Capa_1" xmlns="http://www.w3.org/2000/svg" xmlns:xlink="http://www.w3.org/1999/xlink" x="0px" y="0px"
	 viewBox="0 0 58 58" style="enable-background:new 0 0 58 58;" xml:space="preserve">
<style type="text/css">
	.st0{fill:#FFFFFF;}
</style>
<g>
	<rect x="40" y="27" class="st0" width="12" height="2"/>
	<rect x="40" y="31" class="st0" width="12" height="2"/>
	<rect x="40" y="35" class="st0" width="12" height="2"/>
	<rect x="40" y="39" class="st0" width="12" height="2"/>
	<rect x="40" y="43" class="st0" width="12" height="2"/>
	<path class="st0" d="M54,0h-5v12h-2V0h-2v12h-2V0h-2v12h-2V0h-2v12h-2V0h-2v12h-2V0h-2v12h-2V0h-2v12h-2V0h-2v12h-2V0h-5v14h2v7h6
		v22.3c-0.5-0.7-1.2-1.2-2-1.7V23h-4v17.2c-0.8-0.1-1.6-0.2-2.4-0.2l-0.2,0c-5.1,0.1-9,2.5-9.4,5.7l0,0v6.4c0,3.3,4.1,5.9,9.3,5.9
		l0.2,0c1.9,0,3.7-0.4,5.1-1H49c1.6,0,3-1.3,3-2.8V51H34V21h18v-7h2V0z M15.6,49.8c-0.2,0-0.4,0.1-0.6,0.1c-0.1,0-0.2,0-0.3,0
		c-0.1,0-0.3,0-0.4,0c-0.2,0-0.5,0-0.7,0l-0.2,0c0,0,0,0-0.1,0c-0.2,0-0.4,0-0.7,0c-0.1,0-0.2,0-0.3,0c-0.2,0-0.3,0-0.5,0
		c-0.1,0-0.2,0-0.3,0c-0.1,0-0.3,0-0.4-0.1c-0.1,0-0.2,0-0.3,0c-0.1,0-0.2,0-0.3-0.1l7-7c0.2,0.1,0.5,0.2,0.7,0.3
		c0.1,0,0.1,0.1,0.2,0.1c0.2,0.1,0.4,0.2,0.6,0.3c0,0,0,0,0.1,0c0.2,0.1,0.4,0.3,0.5,0.4c0,0,0.1,0.1,0.1,0.1
		c0.1,0.1,0.3,0.2,0.4,0.4c0,0,0,0,0.1,0.1c0.1,0.1,0.2,0.3,0.3,0.5c0,0,0,0.1,0,0.1c0.1,0.1,0.1,0.3,0.2,0.4c0,0,0,0.1,0,0.1
		c0,0.2,0.1,0.3,0.1,0.5l0,0.3C20.7,47.8,18.5,49.3,15.6,49.8C15.6,49.8,15.6,49.8,15.6,49.8z M13.4,42l0.2,0c0.6,0,1.3,0.1,1.9,0.1
		L8.6,49c0,0-0.1,0-0.1,0c-0.1,0-0.1-0.1-0.2-0.1c-0.1-0.1-0.2-0.1-0.3-0.2c0,0-0.1,0-0.1-0.1c-0.1-0.1-0.2-0.2-0.4-0.2c0,0,0,0,0,0
		C6.6,47.8,6.1,47,6,46.3l0-0.4C6.2,43.8,9.5,42.1,13.4,42z M13.5,56l-0.2,0C9.4,56,6,54.2,6,52.1v-2.3c0,0,0,0,0,0
		c0.2,0.1,0.4,0.3,0.6,0.4c0,0,0.1,0,0.1,0.1c0.2,0.1,0.5,0.3,0.7,0.4c0.1,0,0.1,0.1,0.2,0.1C7.8,50.9,8,51,8.2,51
		c0.1,0,0.2,0.1,0.3,0.1c0.2,0.1,0.3,0.1,0.5,0.2c0.1,0,0.2,0.1,0.4,0.1c0.2,0.1,0.4,0.1,0.5,0.1c0.1,0,0.3,0.1,0.4,0.1
		c0.2,0,0.4,0.1,0.6,0.1c0.1,0,0.3,0,0.4,0.1c0.2,0,0.4,0.1,0.7,0.1c0.1,0,0.2,0,0.3,0c0.3,0,0.7,0,1,0h0l0,0l0.2,0
		c0.4,0,0.7,0,1.1-0.1c0.1,0,0.2,0,0.3,0c0.3,0,0.5-0.1,0.8-0.1c0.1,0,0.2,0,0.2,0c0.3,0,0.5-0.1,0.8-0.2c0.1,0,0.1,0,0.2,0
		c0.3-0.1,0.6-0.2,0.9-0.3c0,0,0,0,0,0c1.3-0.4,2.4-1,3.2-1.7c0,0.1,0,0.1,0,0.1c0,0.8,0,1.4,0,1.8l0,0.5c0,0.1,0,0.3,0,0.4
		c0,0,0,0.1,0,0.1c0,0.1-0.1,0.2-0.1,0.3c0,0,0,0.1-0.1,0.1c0,0.1-0.1,0.2-0.2,0.3c0,0-0.1,0.1-0.1,0.2c-0.1,0.1-0.1,0.2-0.2,0.2
		c-0.1,0.1-0.1,0.1-0.2,0.2c-0.1,0.1-0.1,0.1-0.2,0.2c-0.1,0.1-0.1,0.1-0.2,0.2c0,0-0.1,0.1-0.1,0.1C18.2,55.2,15.9,56,13.5,56z"/>
</g>
</svg>
