<svg id="ce-stock" xmlns="http://www.w3.org/2000/svg" viewBox="0 0 512 512"><defs><style>.cls-1{fill:#fff;}</style></defs><title>Artboard 1</title><g id="stars"><polygon class="cls-1" points="256 6 269.3 46.92 312.33 46.92 277.52 72.22 290.81 113.14 256 87.85 221.19 113.14 234.49 72.22 199.67 46.92 242.7 46.92 256 6"/><polygon class="cls-1" points="79.22 79.22 117.57 98.76 147.99 68.33 141.26 110.83 179.6 130.37 137.1 137.1 130.37 179.6 110.83 141.26 68.33 147.99 98.76 117.57 79.22 79.22"/><polygon class="cls-1" points="6 256 46.93 242.7 46.93 199.67 72.22 234.49 113.14 221.19 87.85 256 113.14 290.81 72.22 277.52 46.93 312.33 46.93 269.3 6 256"/><polygon class="cls-1" points="79.22 432.78 98.76 394.43 68.33 364.01 110.83 370.74 130.37 332.4 137.1 374.9 179.6 381.63 141.26 401.17 147.99 443.67 117.57 413.24 79.22 432.78"/><polygon class="cls-1" points="256 506 242.7 465.07 199.67 465.07 234.49 439.78 221.19 398.86 256 424.15 290.81 398.86 277.52 439.78 312.33 465.07 269.3 465.07 256 506"/><polygon class="cls-1" points="432.78 432.78 394.44 413.24 364.01 443.67 370.74 401.17 332.4 381.63 374.9 374.9 381.63 332.4 401.17 370.74 443.67 364.01 413.24 394.44 432.78 432.78"/><polygon class="cls-1" points="506 256 465.07 269.3 465.07 312.33 439.78 277.51 398.86 290.81 424.15 256 398.86 221.19 439.78 234.49 465.07 199.67 465.07 242.7 506 256"/><polygon class="cls-1" points="432.78 79.22 413.24 117.57 443.67 147.99 401.17 141.26 381.63 179.6 374.9 137.1 332.4 130.37 370.74 110.83 364.01 68.33 394.44 98.76 432.78 79.22"/></g><g id="ce"><path class="cls-1" d="M156.89,256c0,49,42.08,88.84,93.8,88.84V325.61c-41.12,0-74.57-31.23-74.57-69.61s33.45-69.61,74.57-69.61V167.16C199,167.16,156.89,207,156.89,256Z"/><path class="cls-1" d="M355.11,186.39V167.16c-51.72,0-93.8,39.85-93.8,88.84s42.08,88.84,93.8,88.84V325.61c-37.63,0-68.83-26.15-73.86-60H354V246.39H281.25C286.28,212.54,317.48,186.39,355.11,186.39Z"/></g></svg>