<?xml version="1.0" encoding="utf-8"?>
<!-- Generator: Adobe Illustrator 22.0.1, SVG Export Plug-In . SVG Version: 6.00 Build 0)  -->
<svg version="1.1" id="Capa_1" xmlns="http://www.w3.org/2000/svg" xmlns:xlink="http://www.w3.org/1999/xlink" x="0px" y="0px"
	 viewBox="0 0 299.1 299.1" style="enable-background:new 0 0 299.1 299.1;" xml:space="preserve">
<style type="text/css">
	.st0{fill:#FFFFFF;}
</style>
<g>
	<path class="st0" d="M135.5,193.6c-24.3,0-44-19.7-44-44s19.7-44,44-44c8.3,0,15-6.7,15-15s-6.7-15-15-15c-40.8,0-74,33.2-74,74
		s33.2,74,74,74c8.3,0,15-6.7,15-15S143.8,193.6,135.5,193.6z"/>
	<path class="st0" d="M237.6,149.6c0-8.3-6.7-15-15-15h-41.4c6.1-16.9,22.4-29,41.4-29c8.3,0,15-6.7,15-15s-6.7-15-15-15
		c-40.8,0-74,33.2-74,74s33.2,74,74,74c8.3,0,15-6.7,15-15s-6.7-15-15-15c-19,0-35.2-12.1-41.4-29h41.4
		C230.9,164.6,237.6,157.8,237.6,149.6z"/>
	<path class="st0" d="M149.6,0C67.1,0,0,67.1,0,149.6s67.1,149.6,149.6,149.6c82.5,0,149.6-67.1,149.6-149.6S232,0,149.6,0z
		 M149.6,269.1C83.6,269.1,30,215.5,30,149.6S83.6,30,149.6,30c65.9,0,119.6,53.6,119.6,119.6S215.5,269.1,149.6,269.1z"/>
</g>
</svg>
