<?xml version="1.0" encoding="utf-8"?>
<!-- Generator: Adobe Illustrator 22.0.1, SVG Export Plug-In . SVG Version: 6.00 Build 0)  -->
<svg version="1.1" id="Capa_1" xmlns="http://www.w3.org/2000/svg" xmlns:xlink="http://www.w3.org/1999/xlink" x="0px" y="0px"
	 viewBox="0 0 422.1 422.1" style="enable-background:new 0 0 422.1 422.1;" xml:space="preserve">
<style type="text/css">
	.st0{fill:#FFFFFF;}
</style>
<g>
	<g>
		<path class="st0" d="M260.5,179c32.5-21.8,72.9-48.9,72.9-103.2c0-41.8-34-75.7-75.7-75.7c-17.2,0-33.4,5.6-46.6,16
			C197.8,5.6,181.6,0,164.4,0c-41.8,0-75.7,34-75.7,75.7c0,54.5,40.1,81.5,72.4,103.2c18.1,12.2,35.2,23.7,39.5,36.6
			c1.5,4.5,5.7,7.6,10.5,7.6c0.1,0,0.2,0,0.2,0c4.9-0.1,9.1-3.4,10.4-8C225.2,202.6,242.4,191.2,260.5,179z M165.9,33.2
			c-22,6.3-36.7,25.1-36.7,46.7c0,7.4,1.7,14.5,5.1,21.2c0.9,1.7,0.5,3.8-0.9,5.1c-0.8,0.7-1.8,1.1-2.8,1.1c-0.8,0-1.6-0.2-2.3-0.7
			c-12.8-8.5-20.4-22.4-20.4-37.1c0-25,21.4-45.3,47.7-45.3c3.4,0,6.7,0.3,10,1c1.9,0.4,3.3,2,3.4,4C169,30.9,167.8,32.7,165.9,33.2
			z"/>
		<path class="st0" d="M178.5,358.3c-1.6-3.9-3.4-7.7-5.3-11.4c-12.6-24.3-29.8-40.5-46.5-56.1c-4.7-4.4-10.7-11.3-17-18.6
			c-9.3-10.7-18.8-21.7-25.3-25.9c-5.8-3.8-10.6-3.9-14.2-0.3c-5.2,5.3-3.7,15,5,31.7c5.8,11.2,14.2,24.3,23,38.2
			c1.4,2.2,2.9,4.5,4.3,6.8c-15.7-17.2-27.2-32.8-34.3-46.5c-8.2-15.7-9.8-27.9-4.7-34.3c3.6-4.5,10.5-5.6,19.5-3.1l1.3,0.4
			l-0.3-1.3c-0.2-0.7-16.6-69.4-20.1-82.4c-0.8-2.9-1.8-5.6-3.2-8.2c-4.8-9.3-12.4-14.9-18-13.4c-2.7,0.7-7.2,3.8-6.6,16.4
			l8.6,108.4c0.4,3.5,0.7,7.2,1.1,11.2c1,12,2,24.4,7,33.9c2,4,4.4,7.5,7.2,10.9c5.1,6.1,19.3,20.8,34.2,36.4
			c14.6,15.2,29.7,30.9,35.2,37.4c4.3,5.1,8.1,10.8,11.4,17.3c2.7,5.3,5,10.7,7,16.2h52.7l-0.8-2.7
			C193.5,397.9,186.5,377.9,178.5,358.3z"/>
		<path class="st0" d="M379.4,133.9c-5.7-1.5-13.2,4.1-18,13.4c-1.3,2.6-2.4,5.3-3.2,8.2c-3.5,13-20,81.7-20.1,82.4l-0.3,1.3
			l1.3-0.4c8.9-2.5,15.8-1.3,19.5,3.1c5.1,6.3,3.5,18.5-4.7,34.3c-7.1,13.7-18.6,29.3-34.3,46.5c1.5-2.3,2.9-4.6,4.3-6.8
			c8.9-13.9,17.2-27.1,23-38.2c8.6-16.7,10.2-26.5,5-31.8c-3.6-3.6-8.3-3.5-14.2,0.3c-6.4,4.2-16,15.2-25.3,25.9
			c-6.3,7.3-12.3,14.2-17,18.6c-16.7,15.7-33.9,31.9-46.5,56.1c-1.9,3.7-3.7,7.6-5.3,11.4c-8,19.5-15,39.5-21.3,61.1l-0.8,2.7h52.7
			c2-5.5,4.3-11,7-16.2c3.4-6.5,7.1-12.2,11.4-17.3c5.5-6.6,20.6-22.3,35.2-37.4c15-15.6,29.2-30.3,34.2-36.4
			c2.8-3.4,5.2-7,7.2-10.9c4.9-9.5,6-21.9,7-33.9c0.3-3.9,0.6-7.6,1.1-11.2l8.6-108.4C386.6,137.7,382.1,134.6,379.4,133.9z"/>
	</g>
</g>
</svg>
