<?xml version="1.0" encoding="utf-8"?>
<!-- Generator: Adobe Illustrator 22.0.1, SVG Export Plug-In . SVG Version: 6.00 Build 0)  -->
<svg version="1.1" id="Capa_1" xmlns="http://www.w3.org/2000/svg" xmlns:xlink="http://www.w3.org/1999/xlink" x="0px" y="0px"
	 viewBox="0 0 187.2 187.2" style="enable-background:new 0 0 187.2 187.2;" xml:space="preserve">
<style type="text/css">
	.st0{fill:#FFFFFF;}
</style>
<g>
	<g>
		<path class="st0" d="M112.4,35c5.5,5.7,10.2,11.9,13.9,18.4c8.6-5,18.7-8.4,30-9.2c-15.2,11.6-3.5,60.5-25.9,75.2L130,120
			c48.6,0.9,37.1-77.6,57.2-95.1C156.7,11.3,129.8,18.8,112.4,35z"/>
		<path class="st0" d="M76.3,74.1c17.1,17.8,24.3,97.5,24.3,97.5l13.9-14.3C114.5,157.2,104.3,87.8,76.3,74.1z"/>
		<path class="st0" d="M139.6,56.8c-5.5,2.7-9.8,8.8-13.2,15.6C114.2,32.4,65.2-3.3,0,27c42.1,6.8,13.5,108.3,82.9,109.9
			c-23.8-11.5-10.4-51.4-27.5-77.5c46.9-7.4,66.8,41.9,60.2,67.7c10.9-11.3,15-26.3,13.5-41.6C131.5,73.9,135,61.7,139.6,56.8z"/>
	</g>
</g>
</svg>
