<?xml version="1.0" encoding="utf-8"?>
<!-- Generator: Adobe Illustrator 22.0.1, SVG Export Plug-In . SVG Version: 6.00 Build 0)  -->
<svg version="1.1" id="Capa_1" xmlns="http://www.w3.org/2000/svg" xmlns:xlink="http://www.w3.org/1999/xlink" x="0px" y="0px"
	 viewBox="0 0 120.1 120.1" style="enable-background:new 0 0 120.1 120.1;" xml:space="preserve">
<style type="text/css">
	.st0{fill:#FFFFFF;}
</style>
<g>
	<path class="st0" d="M22.5,89.3c4.4,0,8.5-1.6,11.9-4.3c4.4,3.5,9.8,5.6,15.5,5.6c6.7,0,13-2.6,17.8-7.4c9.6-9.8,9.5-25.6-0.3-35.2
		c-4.7-4.6-10.9-7.2-17.5-7.2c-2.9,0-5.6,0.6-8.3,1.5V19.2C41.7,8.6,33.1,0,22.5,0C12,0,3.4,8.6,3.4,19.2v50.9
		C3.4,80.7,12,89.3,22.5,89.3z M9.4,70.1V46.8h24.4c-0.6,0.5-1.2,0.9-1.7,1.4c-8.8,8.9-9.3,22.8-2,32.5c-2.2,1.6-4.9,2.5-7.7,2.5
		C15.3,83.2,9.4,77.3,9.4,70.1z M63.4,78.9C57,85.3,46.4,86,39.1,81l26-26.4C70.5,61.9,69.9,72.2,63.4,78.9z M60.8,50.3l-26,26.4
		c-5.4-7.3-4.8-17.6,1.7-24.3c3.6-3.6,8.3-5.6,13.4-5.6C53.9,46.8,57.6,48.1,60.8,50.3z M22.5,6c7.2,0,13.1,5.9,13.1,13.1v21.6H9.4
		V19.2C9.4,11.9,15.3,6,22.5,6z M116.7,56.3c0,1.7-1.3,3-3,3H92.5L75.4,98.5c-0.5,1.1-1.6,1.8-2.8,1.8H7.8c-1.7,0-3-1.4-3-3
		c0-1.7,1.4-3,3-3h62.8l17.2-39.2c0.5-1.1,1.6-1.8,2.8-1.8h23.2C115.4,53.3,116.7,54.6,116.7,56.3z M30.6,111.4
		c0,4.8-3.9,8.7-8.7,8.7c-4.8,0-8.7-3.9-8.7-8.7c0-4.8,3.9-8.7,8.7-8.7C26.7,102.8,30.6,106.7,30.6,111.4z M61.4,111.4
		c0,4.8-3.9,8.7-8.7,8.7c-4.8,0-8.7-3.9-8.7-8.7c0-4.8,3.9-8.7,8.7-8.7C57.5,102.8,61.4,106.7,61.4,111.4z"/>
</g>
</svg>
