<svg xmlns="http://www.w3.org/2000/svg" viewBox="0 0 259.66 227.07"><title>Asset 26ldpi</title><path d="M130,.25c15.93-.2,19.25,41.26,27.55,45.59,9.46,4.93,48.07-13.38,57.54,3.57,8.37,15-27.06,37.44-27.12,46.89-.05,9.85,34.78,33.44,26.48,47.88s-46.24-3.87-55.5,1.31c-8.91,5-12.31,46.84-28.44,46.69-15.78-.15-18.15-42-26.3-46.42-9.08-4.93-47.48,13.65-56.65-2.75-8.73-15.64,26.88-38.63,27.15-48.48C75,85.38,40,62.93,47.58,49.4c8.37-15,46.66,2.52,56.16-2.8C112.26,41.85,114.6.45,130,.25Z" style="fill:none;stroke:#FFF;stroke-width:0.5px"/><path d="M135.5,1.68c15.78.74,16.66,41.84,24.64,46.68,8.93,5.42,48-10.54,56.33,6.34,7.46,15-28.72,35.3-29.26,44.6-.59,9.76,32.43,35,23.22,48.85s-45.38-6.42-54.71-1.85c-8.93,4.4-14.46,45.54-30.3,44.52s-15.82-42.54-23.7-47.5c-8.55-5.38-47.32,10.93-55.49-5.36-7.79-15.68,28.42-36.48,29.2-46.16.73-9.19-32.25-33.37-23.75-46.51,9.2-14.22,45.62,5.21,55.13.53C115.46,41.55,120.18.92,135.5,1.68Z" style="fill:none;stroke:#FFF;stroke-width:0.5px"/><path d="M141,3.09c15.62,1.7,14.06,42.44,21.72,47.8,8.41,5.88,47.87-7.7,55.13,9.1,6.54,15.12-30.35,33.15-31.4,42.31-1.12,9.67,30.05,36.54,20,49.82s-44.54-9-53.93-5c-9,3.81-16.61,44.23-32.15,42.34s-13.5-43.09-21.09-48.57c-8-5.83-47.22,8.23-54.34-8-6.89-15.67,30-34.32,31.24-43.83,1.22-9.22-29.82-35.14-20.33-47.89,10-13.41,44.58,7.92,54.09,3.86C118.67,41.28,125.76,1.41,141,3.09Z" style="fill:none;stroke:#FFF;stroke-width:0.5px"/><path d="M146.45,4.52c15.45,2.65,11.47,43,18.8,48.88,7.89,6.35,47.75-4.85,53.92,11.88,5.62,15.2-32,31-33.55,40-1.64,9.6,27.69,38.08,16.73,50.79-10.83,12.56-43.71-11.55-53.16-8.17-9,3.21-18.76,42.91-34,40.17-15.54-2.77-11.17-43.63-18.47-49.65-7.55-6.24-47.1,5.5-53.21-10.6-6-15.72,31.57-32.18,33.29-41.51S49.39,49.4,59.89,37.07C70.65,24.43,103.44,47.69,113,44.24,121.9,41,131.34,1.88,146.45,4.52Z" style="fill:none;stroke:#FFF;stroke-width:0.5px"/><path d="M151.92,5.94c15.29,3.6,8.89,43.56,15.89,50,7.38,6.8,47.62-2,52.71,14.64,4.68,15.3-33.65,28.87-35.69,37.74-2.19,9.51,25.34,39.63,13.48,51.77C186.67,172,155.45,146,145.93,148.73c-9,2.63-20.91,41.56-35.86,38-15.47-3.69-8.86-44.16-15.85-50.75s-47,2.79-52.07-13.21c-5-15.75,33.17-30,35.35-39.18C79.72,74.29,52.46,44.87,64,33S106.53,46.29,116,43.46C125.12,40.74,136.92,2.35,151.92,5.94Z" style="fill:none;stroke:#FFF;stroke-width:0.5px"/><path d="M157.39,7.36c15.14,4.55,6.31,44.1,13,51.09,6.89,7.23,47.5.87,51.52,17.4,3.73,15.39-35.32,26.73-37.84,35.45-2.73,9.42,23,41.19,10.22,52.74-12.43,11.26-42-16.68-51.59-14.5-9,2.05-23.06,40.22-37.72,35.84-15.38-4.59-6.55-44.67-13.24-51.83s-46.81.06-50.92-15.83,34.76-27.89,37.4-36.85c2.73-9.35-22.69-40.55-10.1-52,12.23-11.13,41.52,16.07,51,13.82C128.34,40.49,142.51,2.84,157.39,7.36Z" style="fill:none;stroke:#FFF;stroke-width:0.5px"/><path d="M162.86,8.78c15,5.51,3.75,44.64,10.06,52.19s47.35,3.74,50.3,20.16c2.79,15.5-37,24.59-40,33.17-3.28,9.33,20.66,42.75,7,53.71-13.24,10.63-41.15-19.23-50.82-17.66-9.06,1.47-25.2,38.85-39.56,33.67-15.31-5.52-4.27-45.18-10.63-52.91-6.1-7.41-46.67-2.67-49.78-18.44S75.8,86.93,78.87,78.14c3.28-9.39-20.34-42.39-6.67-53.41,12.91-10.4,40.49,18.8,50,17.15S148.09,3.31,162.86,8.78Z" style="fill:none;stroke:#FFF;stroke-width:0.5px"/><path d="M168.33,10.2c14.83,6.46,1.2,45.18,7.14,53.29s47.19,6.6,49.1,22.93c1.82,15.59-38.64,22.43-42.12,30.87-3.84,9.26,18.32,44.32,3.73,54.69-14,10-40.31-21.76-50-20.82-9.09.91-27.34,37.47-41.41,31.5-15.22-6.46-2-45.67-8-54-5.64-7.78-46.5-5.4-48.63-21.07C35.91,91.75,76.06,84,79.55,75.41c3.83-9.42-18-44.27-3.25-54.78,13.61-9.72,39.48,21.54,49,20.47S153.67,3.78,168.33,10.2Z" style="fill:none;stroke:#FFF;stroke-width:0.5px"/><path d="M173.8,11.62C188.48,19,172.46,57.33,178,66c5.43,8.48,47,9.46,47.9,25.68.83,15.69-40.33,20.28-44.28,28.59-4.39,9.17,16,45.92.49,55.66-14.83,9.4-39.47-24.32-49.25-24-9.13.32-29.48,36.1-43.29,29.33-15.11-7.41.28-46.17-5.4-55.07-5.19-8.15-46.33-8.14-47.49-23.68-1.19-15.9,39.62-21.42,43.54-29.88,4.37-9.44-15.7-46.15.16-56.15,14.28-9,38.45,24.29,47.91,23.79C138,39.78,159.25,4.26,173.8,11.62Z" style="fill:none;stroke:#FFF;stroke-width:0.5px"/><path d="M35.34,97.48c-.2-15.92,41.27-19.24,45.59-27.54,4.93-9.46-13.38-48.07,3.58-57.54C99.49,4,122,39.46,131.4,39.52c9.84,0,33.44-34.78,47.88-26.47s-3.88,46.23,1.3,55.49c5,8.9,46.84,12.32,46.69,28.44-.15,15.79-42,18.14-46.41,26.31-4.94,9.07,13.64,47.47-2.76,56.64-15.64,8.73-38.63-26.88-48.48-27.15-9.15-.26-31.6,34.71-45.13,27.16-15-8.37,2.53-46.65-2.79-56.16C76.94,115.26,35.54,112.93,35.34,97.48Z" style="fill:none;stroke:#FFF;stroke-width:0.5px"/><path d="M12.24,123.5c-3.59.51-6.12.33-7.58-.57-1.69-1-2.78-3.26-3.29-6.76L0,106.67l30-4.32L32.42,119l-5.65.8-1.49-10.38-5.13.73a23.22,23.22,0,0,1,.74,3.35c.45,3.13-.11,5.52-1.68,7.13-1.39,1.43-3.71,2.37-7,2.84m-.91-6.37a7.67,7.67,0,0,0,3-.88,2.52,2.52,0,0,0,1.05-2.74A15,15,0,0,0,14.8,111l-8.24,1.18.24,1.68a4.12,4.12,0,0,0,1.32,2.91,4.52,4.52,0,0,0,3.21.4" style="fill:#FFF"/><path d="M10.47,148.89l-2.16-6.07,5.5-1.95-1.78-5-5.49,2L4.38,131.8l5.5-2Q25.6,124.25,35,127.36l2,5.58q-5.61,8.51-21,14Zm8.1-9.72a42.58,42.58,0,0,0,13-7.44,42.53,42.53,0,0,0-14.8,2.48Z" style="fill:#FFF"/><path d="M30.07,166c-3,1.78-5.41,2.42-7.24,1.92s-3.64-2.26-5.42-5.29q-4.66-7.92,2.59-12.19A18.83,18.83,0,0,1,22.91,149l3.17,5.4c-2.62,1.55-4,2.6-4.25,3.16a2.66,2.66,0,0,0,.49,2.21A2.78,2.78,0,0,0,24,161.25a3.27,3.27,0,0,0,2.18-.59l2.17-1.27c1.31-.78,1.84-1.7,1.57-2.78a19.88,19.88,0,0,0-1.68-3.18l4.7-2.76a13.72,13.72,0,0,0,2,2.89c.81.63,1.87.55,3.18-.23a4,4,0,0,0,1.63-1.4,2.34,2.34,0,0,0-.42-2.16c-.63-1.07-1.34-1.54-2.13-1.4a11.86,11.86,0,0,0-2.5,1.28l-3.08-5.22c.79-.6,1.31-1,1.56-1.11q3.68-2.17,6.38-1.15c1.63.61,3.2,2.18,4.68,4.71,1.6,2.7,2.27,4.88,2,6.52-.29,1.84-1.74,3.53-4.38,5.08a6.79,6.79,0,0,1-6.71.35,7.76,7.76,0,0,1-1.53,4.3A11.82,11.82,0,0,1,30.07,166" style="fill:#FFF"/><path d="M61.33,170.83a17,17,0,0,1-12.5,4.3,16.73,16.73,0,0,1-3.13,8.62,40.63,40.63,0,0,1-6.29,6.75l-4.31-4.79a53.1,53.1,0,0,0,5.17-5.11,16.09,16.09,0,0,0,3.38-6.33,19.63,19.63,0,0,1-2.73-.91l-9.36,8.39L27.32,177l22.57-20.25,4.23,4.72-9.58,8.6q6.62,1.22,13.13-4.64l4.3,4.79-.31.29c-.16.13-.26.23-.33.29" style="fill:#FFF"/><rect x="42.44" y="182.92" width="29.1" height="6.61" transform="translate(-123.31 112.59) rotate(-50.77)" style="fill:#FFF"/><path d="M72.3,219.61l-4.94-2.86,2.6-4.49-10.21-5.91-2.59,4.49L52.22,208l5.41-9.35,2,1.17a82.57,82.57,0,0,1,4.9-7.62,26.05,26.05,0,0,1,6.59-6.55A16.82,16.82,0,0,1,80,183l7.75,4.48L75.35,208.89l2.36,1.37Zm-2.51-13.94L79.43,189A14.61,14.61,0,0,0,76,190.12q-4.47,2.16-10.71,12.93Z" style="fill:#FFF"/><path d="M124.32,212c-1.33,7.22-4.81,10.32-10.48,9.28a10.73,10.73,0,0,1-3.26-1.11l-.93,5.1-6.25-1.14.93-5.1a11.16,11.16,0,0,1-3.45-.1q-8.5-1.54-6.52-12.39,1.92-10.58,11.23-8.89l2.55.47.7-3.82,6.24,1.13-.69,3.83,2.55.46q9.3,1.71,7.38,12.28m-19,1.76,1.83-10-1.67-.31q-2.49-.45-3.54.72a8.3,8.3,0,0,0-1.22,3.55,11.79,11.79,0,0,0-.26,3.6,2.55,2.55,0,0,0,2.21,2.42,7.21,7.21,0,0,0,2.65.05M118,210.81a8.34,8.34,0,0,0,.12-3.76c-.36-1-1.38-1.61-3.07-1.91l-1.66-.31-1.83,10a7.55,7.55,0,0,0,2.49.9,2.54,2.54,0,0,0,2.92-1.49,11.73,11.73,0,0,0,1-3.45" style="fill:#FFF"/><path d="M146.43,226.05l-6.43.37-.32-5.83-5.27.29.33,5.83-6.43.36-.32-5.82q-.93-16.67,4.71-24.8l5.91-.32q6.58,7.78,7.49,24.11Zm-7-10.5a42.2,42.2,0,0,0-3.46-14.6,42.45,42.45,0,0,0-1.79,14.89Z" style="fill:#FFF"/><path d="M167.17,201.44q2.79,10.83-5.57,13a21.65,21.65,0,0,1-3.37.6l2.11,8.2-6.15,1.59-7.57-29.36,8.2-2.12q5.35-1.38,8.26.72c1.78,1.26,3.14,3.73,4.09,7.38M161,203.13a8.53,8.53,0,0,0-1.54-3.52,3.48,3.48,0,0,0-3.58-.65l-1.65.43,2.69,10.42a15.82,15.82,0,0,0,2.58-.45,2.54,2.54,0,0,0,2.08-2.59,13.18,13.18,0,0,0-.58-3.64" style="fill:#FFF"/><path d="M206.19,203.16l-5.65,3.16-12.13-21.73a17.68,17.68,0,0,0-.32,8.19,28.62,28.62,0,0,0,3.18,7.57l4.73,8.5-5.42,3-4.74-8.48a29.32,29.32,0,0,0-4.77-6.69,17.85,17.85,0,0,0-7.14-4l12.12,21.73-5.65,3.16-14.79-26.48,7.82-4.36a20,20,0,0,1,9.14,4.44,20.09,20.09,0,0,1,1-10.12l7.8-4.36Z" style="fill:#FFF"/><polygon points="212.41 163.02 207.74 168.06 225.76 184.73 221.44 189.39 199.19 168.8 208.17 159.09 212.41 163.02" style="fill:#FFF"/><path d="M228.4,148.34q9.4,6.06,4.73,13.32a22.18,22.18,0,0,1-2.06,2.73l7.12,4.58-3.44,5.34-25.5-16.42,4.58-7.11c2-3.1,4.18-4.8,6.56-5.08,2.17-.28,4.84.59,8,2.64M225,153.8a8.64,8.64,0,0,0-3.52-1.55,3.47,3.47,0,0,0-3.06,2l-.93,1.43,9.05,5.83a17.8,17.8,0,0,0,1.6-2.09,2.55,2.55,0,0,0-.24-3.3,13.09,13.09,0,0,0-2.9-2.28" style="fill:#FFF"/><path d="M232,127a58.59,58.59,0,0,1,11.4,5.73A26.37,26.37,0,0,1,252,142l-4.22,10.74-5.3-2.09,1.23-3.14q-8,.48-18.36-3.59l-5.79-2.28,2.36-6q8.55,3.38,9.46,3.67a39.9,39.9,0,0,0,9.82,2.42,21.9,21.9,0,0,0,3.34,0,26.53,26.53,0,0,0-2.43-2.31,42.08,42.08,0,0,0-8.85-4.88q-.88-.39-9.44-3.75l2.38-6Z" style="fill:#FFF"/><polygon points="259.66 110.45 258.56 116.79 234.05 112.48 233.15 117.55 257.67 121.85 256.56 128.19 226.69 122.95 229.8 105.2 259.66 110.45" style="fill:#FFF"/><path d="M130,148.26h0Z" style="fill:#FFF"/><path d="M137.48,123.17a6.87,6.87,0,0,0,7.42-7.36,9.41,9.41,0,0,0-3.12-6.19l-8.24-8.23-10.45,10.45,8.24,8.24A9.42,9.42,0,0,0,137.48,123.17Z" style="fill:#FFF"/><path d="M181.56,96.69A51.57,51.57,0,1,0,130,148.26h0A51.56,51.56,0,0,0,181.56,96.69ZM115.09,82.93a9.45,9.45,0,0,0-6.18-3.12,6.88,6.88,0,0,0-7.37,7.43,9.53,9.53,0,0,0,3.09,6.15l6.12,6.11-8.85,8.86-7.62-7.61a22.48,22.48,0,0,1-5.38-8A18.88,18.88,0,0,1,87.75,85a17.94,17.94,0,0,1,2-7.06A23.6,23.6,0,0,1,94,72.16c4.41-4.39,9.15-6.51,14.27-6.34s10,2.56,14.58,7.15l8.84,8.84,12.77-12.76a6.9,6.9,0,0,1,9.77,0l12.6,12.58,0,0a6.73,6.73,0,0,1-9.51,9.52s0,0,0,0h0l-4.9-4.91h0s0,0,0,0a2.56,2.56,0,0,0-3.65,0,.38.38,0,0,0-.1.12l-5.55,5.55,9.45,9.44q7.22,7.22,7.47,15.25t-6.64,14.94a24.5,24.5,0,0,1-6,4.39,18.61,18.61,0,0,1-7.39,2.14,19.35,19.35,0,0,1-8.18-1.21,22.78,22.78,0,0,1-8.32-5.62l-20.58-20.57,20-20Z" style="fill:#FFF"/></svg>
